<svg width="167" height="129" viewBox="0 0 167 129" fill="none" xmlns="http://www.w3.org/2000/svg">
<path d="M0.298828 75.6797C17.3446 75.6797 17.3446 75.6797 19.8249 78.0303C21.7419 80.1124 21.8957 82.949 21.876 85.6357C21.8756 85.7306 21.8751 85.8254 21.8747 85.9232C21.8587 88.8848 21.7797 91.5987 19.7059 93.9087C19.0237 94.5677 18.1477 94.9624 17.3055 95.3791C17.4356 95.458 17.5656 95.5369 17.6997 95.6182C19.5831 96.7796 20.8508 97.987 21.535 100.151C21.8714 101.667 21.8618 103.273 21.8612 104.818C21.8617 104.986 21.8621 105.154 21.8626 105.328C21.864 105.877 21.8642 106.427 21.8644 106.976C21.8646 107.168 21.8648 107.359 21.8651 107.55C21.8664 108.552 21.867 109.553 21.8669 110.555C21.8668 111.481 21.8683 112.408 21.8705 113.335C21.8724 114.136 21.8731 114.938 21.873 115.739C21.873 116.215 21.8735 116.692 21.8749 117.168C21.8926 123.866 21.8926 123.866 19.5642 126.296C15.1714 130.508 3.77396 128.542 0.298828 128.542C0.298828 111.097 0.298828 93.6529 0.298828 75.6797ZM6.81805 81.632C6.81805 85.2332 6.81805 88.8343 6.81805 92.5446C10.6428 92.8081 10.6428 92.8081 14.0459 91.4108C14.9748 90.3357 15.2237 89.2875 15.2223 87.8988C15.2232 87.7007 15.2232 87.7007 15.2241 87.4987C15.2249 87.2204 15.225 86.9422 15.2244 86.6639C15.2239 86.2394 15.2273 85.815 15.2309 85.3904C15.2312 85.1193 15.2313 84.8483 15.2311 84.5772C15.2324 84.4509 15.2338 84.3247 15.2351 84.1946C15.2285 83.3029 15.0695 82.7048 14.471 82.0129C14.0221 81.6341 13.6418 81.6145 13.0767 81.6159C12.8653 81.616 12.8653 81.616 12.6496 81.616C12.5018 81.6167 12.3541 81.6174 12.2018 81.6182C12.0657 81.6183 11.9297 81.6185 11.7894 81.6186C11.2809 81.6194 10.7723 81.6213 10.2637 81.6232C8.55809 81.6275 8.55809 81.6275 6.81805 81.632ZM6.81805 98.497C6.81805 106.448 6.81805 114.398 6.81805 122.59C10.3348 122.888 10.3348 122.888 14.6216 122.049C15.1191 121.488 15.2151 120.954 15.2176 120.218C15.2188 120.056 15.22 119.893 15.2212 119.726C15.221 119.461 15.221 119.461 15.2208 119.191C15.2217 119.001 15.2226 118.812 15.2237 118.623C15.2262 118.11 15.2269 117.598 15.2271 117.085C15.2273 116.764 15.2279 116.443 15.2286 116.122C15.2312 115.002 15.2324 113.881 15.2322 112.76C15.232 111.718 15.235 110.675 15.2395 109.633C15.2432 108.736 15.2447 107.84 15.2445 106.943C15.2444 106.408 15.2452 105.873 15.2483 105.339C15.251 104.835 15.251 104.332 15.249 103.828C15.2485 103.557 15.2509 103.286 15.2533 103.015C15.2442 101.746 15.004 100.79 14.3027 99.7282C12.1944 97.7135 9.85274 98.497 6.81805 98.497Z" fill="white"/>
<path d="M65.7754 14.8809C82.8212 14.8809 82.8212 14.8809 85.3015 17.2315C87.2185 19.3135 87.3722 22.1502 87.3526 24.8368C87.3521 24.9317 87.3517 25.0266 87.3513 25.1244C87.3352 28.086 87.2563 30.7999 85.1825 33.1099C84.5003 33.7689 83.6242 34.1636 82.782 34.5802C82.9121 34.6592 83.0422 34.7381 83.1762 34.8194C85.0596 35.9808 86.3274 37.1882 87.0116 39.3517C87.348 40.868 87.3384 42.474 87.3377 44.0196C87.3382 44.1876 87.3387 44.3557 87.3392 44.5288C87.3405 45.0784 87.3408 45.628 87.341 46.1777C87.3412 46.3689 87.3414 46.5602 87.3416 46.7515C87.3429 47.7529 87.3435 48.7544 87.3434 49.7559C87.3433 50.6826 87.3448 51.6092 87.3471 52.5359C87.3489 53.3374 87.3497 54.139 87.3496 54.9405C87.3496 55.4166 87.3501 55.8927 87.3515 56.3688C87.3691 63.0675 87.3691 63.0675 85.0407 65.4973C80.648 69.7096 69.2505 67.7432 65.7754 67.7432C65.7754 50.2986 65.7754 32.8541 65.7754 14.8809ZM72.2946 20.8332C72.2946 24.4343 72.2946 28.0355 72.2946 31.7458C76.1194 32.0093 76.1194 32.0093 79.5224 30.612C80.4514 29.5369 80.7003 28.4887 80.6988 27.1C80.6998 26.9019 80.6998 26.9019 80.7007 26.6998C80.7015 26.4216 80.7016 26.1433 80.701 25.8651C80.7005 25.4405 80.7038 25.0161 80.7074 24.5916C80.7077 24.3205 80.7078 24.0494 80.7077 23.7784C80.709 23.6521 80.7103 23.5259 80.7117 23.3958C80.7051 22.5041 80.5461 21.906 79.9476 21.2141C79.4987 20.8353 79.1184 20.8156 78.5533 20.8171C78.3418 20.8171 78.3418 20.8171 78.1262 20.8172C77.9784 20.8179 77.8306 20.8186 77.6784 20.8193C77.5423 20.8195 77.4062 20.8196 77.266 20.8198C76.7574 20.8205 76.2488 20.8225 75.7402 20.8243C74.0346 20.8287 74.0346 20.8287 72.2946 20.8332ZM72.2946 37.6981C72.2946 45.6487 72.2946 53.5994 72.2946 61.7909C75.8114 62.0893 75.8114 62.0893 80.0982 61.2506C80.5956 60.6889 80.6916 60.1552 80.6941 59.4192C80.6953 59.2569 80.6965 59.0946 80.6978 58.9274C80.6976 58.6622 80.6976 58.6622 80.6974 58.3917C80.6982 58.2026 80.6992 58.0135 80.7003 57.8244C80.7028 57.3116 80.7034 56.7989 80.7036 56.2861C80.7038 55.9653 80.7044 55.6444 80.7052 55.3236C80.7078 54.2027 80.709 53.0818 80.7087 51.961C80.7086 50.9187 80.7116 49.8764 80.716 48.8342C80.7198 47.9375 80.7213 47.0408 80.7211 46.1441C80.721 45.6093 80.7218 45.0747 80.7248 44.54C80.7276 44.0364 80.7276 43.5328 80.7255 43.0292C80.7251 42.7584 80.7274 42.4875 80.7299 42.2166C80.7207 40.9475 80.4806 39.9913 79.7793 38.9293C77.671 36.9147 75.3293 37.6981 72.2946 37.6981Z" fill="white"/>
<path d="M106.296 75.1931C106.495 75.1925 106.693 75.1917 106.892 75.1909C107.305 75.1896 107.718 75.1899 108.131 75.1914C108.55 75.1927 108.969 75.1917 109.387 75.1885C115.76 75.1396 115.76 75.1396 118.203 77.4158C120.039 79.4063 120.36 81.9237 120.356 84.5173C120.357 84.6734 120.357 84.8295 120.357 84.9903C120.358 85.51 120.358 86.0298 120.358 86.5496C120.358 86.9236 120.359 87.2975 120.359 87.6715C120.361 88.5801 120.361 89.4887 120.361 90.3972C120.361 91.1363 120.361 91.8754 120.362 92.6145C120.363 94.7136 120.364 96.8127 120.364 98.9117C120.364 99.0247 120.364 99.1377 120.364 99.2541C120.364 99.3672 120.364 99.4803 120.364 99.5968C120.364 101.429 120.365 103.262 120.367 105.094C120.369 106.979 120.37 108.864 120.37 110.749C120.37 111.806 120.37 112.863 120.372 113.92C120.373 114.819 120.373 115.719 120.372 116.619C120.372 117.078 120.372 117.536 120.373 117.994C120.386 123.949 120.386 123.949 118.495 126.275C118.427 126.363 118.36 126.452 118.29 126.543C117.766 127.15 117.126 127.505 116.422 127.869C116.289 127.939 116.289 127.939 116.153 128.01C114.606 128.767 112.975 128.891 111.278 128.887C111.079 128.888 110.881 128.888 110.682 128.889C110.269 128.891 109.856 128.89 109.443 128.889C109.024 128.887 108.605 128.888 108.187 128.892C101.885 128.94 101.885 128.94 99.3892 126.709C97.8394 125.042 97.3338 122.968 97.3415 120.757C97.341 120.59 97.3404 120.423 97.3399 120.252C97.3387 119.793 97.3387 119.333 97.3393 118.874C97.3397 118.378 97.3384 117.881 97.3373 117.385C97.3355 116.413 97.3353 115.442 97.3356 114.47C97.3359 113.68 97.3356 112.89 97.335 112.1C97.3349 111.988 97.3349 111.875 97.3348 111.759C97.3346 111.53 97.3344 111.301 97.3342 111.073C97.3327 108.928 97.333 106.784 97.3339 104.64C97.3346 102.681 97.333 100.722 97.3303 98.7633C97.3276 96.7492 97.3264 94.7351 97.3269 92.7211C97.3272 91.5913 97.3269 90.4616 97.3249 89.3319C97.3232 88.37 97.323 87.4082 97.3247 86.4463C97.3255 85.9561 97.3257 85.466 97.324 84.9758C97.3225 84.443 97.3236 83.9103 97.3254 83.3775C97.3244 83.2245 97.3233 83.0716 97.3223 82.9139C97.3368 80.8568 97.9627 78.9549 99.3537 77.407C99.9067 76.8955 100.504 76.537 101.17 76.1935C101.257 76.1478 101.345 76.1022 101.435 76.0552C102.98 75.3137 104.607 75.1893 106.296 75.1931ZM104.287 81.9864C103.945 82.475 103.88 82.8365 103.879 83.4178C103.879 83.5524 103.878 83.687 103.877 83.8257C103.878 83.9739 103.878 84.122 103.878 84.2747C103.877 84.4319 103.877 84.5891 103.877 84.751C103.875 85.2804 103.875 85.8098 103.875 86.3393C103.874 86.7177 103.873 87.0962 103.873 87.4746C103.871 88.5048 103.87 89.5349 103.869 90.565C103.869 91.2081 103.868 91.8512 103.868 92.4943C103.866 94.2745 103.864 96.0548 103.864 97.835C103.864 97.9489 103.864 98.0629 103.864 98.1803C103.864 98.2945 103.864 98.4088 103.864 98.5265C103.864 98.7579 103.864 98.9894 103.864 99.2209C103.864 99.3357 103.864 99.4505 103.864 99.5688C103.863 101.43 103.861 103.29 103.857 105.151C103.854 107.061 103.852 108.971 103.852 110.881C103.852 111.953 103.851 113.026 103.848 114.098C103.846 115.012 103.845 115.925 103.847 116.838C103.847 117.304 103.847 117.77 103.845 118.236C103.843 118.741 103.844 119.246 103.846 119.751C103.844 119.972 103.844 119.972 103.842 120.198C103.849 121.129 104.014 121.701 104.535 122.483C105.608 123.234 107.224 123.059 108.487 123.052C108.796 123.05 109.105 123.052 109.415 123.054C111.327 123.112 111.327 123.112 113.039 122.404C113.551 121.853 113.712 121.373 113.713 120.627C113.714 120.425 113.714 120.425 113.715 120.218C113.715 120.071 113.714 119.923 113.713 119.771C113.714 119.614 113.715 119.457 113.715 119.294C113.717 118.766 113.716 118.237 113.715 117.709C113.716 117.33 113.717 116.952 113.718 116.573C113.719 115.651 113.72 114.729 113.719 113.807C113.719 113.058 113.719 112.308 113.72 111.559C113.72 111.452 113.72 111.346 113.72 111.236C113.72 111.019 113.721 110.802 113.721 110.586C113.722 108.554 113.722 106.522 113.721 104.49C113.72 102.632 113.722 100.773 113.725 98.9138C113.727 97.0052 113.729 95.0965 113.728 93.1878C113.728 92.1163 113.728 91.0447 113.73 89.9731C113.732 89.0609 113.732 88.1487 113.73 87.2365C113.729 86.7711 113.73 86.3058 113.731 85.8404C113.732 85.3358 113.731 84.8313 113.73 84.3268C113.731 84.1062 113.731 84.1062 113.733 83.8812C113.727 83.1199 113.687 82.5695 113.251 81.9155C112.689 81.4084 112.351 81.1901 111.601 81.1841C111.464 81.1827 111.327 81.1813 111.187 81.1799C111.038 81.1793 110.89 81.1787 110.737 81.1781C110.585 81.1773 110.433 81.1765 110.277 81.1757C109.954 81.1743 109.632 81.1734 109.31 81.1729C108.817 81.1715 108.325 81.1671 107.832 81.1626C107.519 81.1617 107.206 81.161 106.893 81.1604C106.672 81.1578 106.672 81.1578 106.447 81.1551C105.485 81.1581 104.953 81.2473 104.287 81.9864Z" fill="white"/>
<path d="M65.7754 75.6797C82.6808 75.6797 82.6808 75.6797 85.1913 78.089C86.7971 79.965 87.077 82.0526 87.0726 84.4373C87.0733 84.6623 87.074 84.8873 87.0748 85.1124C87.0767 85.7205 87.0768 86.3287 87.0765 86.9369C87.0763 87.4462 87.077 87.9554 87.0777 88.4646C87.0792 89.6669 87.0793 90.8691 87.0785 92.0714C87.0776 93.3082 87.0793 94.5449 87.0824 95.7817C87.0849 96.8467 87.0857 97.9116 87.0852 98.9766C87.085 99.6113 87.0854 100.246 87.0873 100.881C87.0891 101.478 87.0888 102.075 87.087 102.673C87.0867 102.891 87.087 103.109 87.0882 103.327C87.0992 105.521 86.7624 107.598 85.224 109.265C84.4254 109.988 83.1772 111.11 82.0734 111.11C83.4732 114.854 84.8805 118.596 86.2985 122.333C86.3662 122.511 86.4339 122.69 86.5016 122.868C86.6946 123.377 86.8877 123.885 87.0808 124.394C87.1654 124.617 87.1654 124.617 87.2518 124.845C87.3061 124.987 87.3603 125.13 87.4161 125.277C87.4687 125.416 87.5213 125.555 87.5755 125.698C87.6951 126.01 87.8172 126.32 87.941 126.63C88.0385 126.876 88.0385 126.876 88.138 127.127C88.1978 127.276 88.2576 127.425 88.3192 127.578C88.4509 127.975 88.4509 127.975 88.4509 128.542C86.0658 128.542 83.6806 128.542 81.2231 128.542C80.5854 126.948 80.5854 126.948 80.3609 126.224C80.2847 125.979 80.2847 125.979 80.2069 125.73C80.1271 125.471 80.1271 125.471 80.0456 125.207C79.9879 125.021 79.9301 124.835 79.8723 124.65C79.7187 124.156 79.5659 123.663 79.4131 123.169C79.1597 122.351 78.9051 121.533 78.6506 120.715C78.587 120.511 78.5235 120.306 78.4599 120.102C78.0531 118.793 77.6428 117.485 77.2255 116.179C77.1816 116.041 77.1377 115.904 77.0925 115.762C76.8927 115.137 76.6922 114.512 76.4907 113.887C76.4213 113.671 76.352 113.454 76.2828 113.238C76.2515 113.142 76.2202 113.046 76.1879 112.946C76.062 112.552 75.9794 112.237 75.9794 111.819C74.7634 111.819 73.5474 111.819 72.2946 111.819C72.2946 117.337 72.2946 122.856 72.2946 128.542C70.1433 128.542 67.9919 128.542 65.7754 128.542C65.7754 111.097 65.7754 93.6529 65.7754 75.6797ZM72.2946 81.632C72.2946 89.5826 72.2946 97.5332 72.2946 105.725C76.1513 106.224 76.1513 106.224 80.0008 105.016C80.4058 104.518 80.3912 104.075 80.3936 103.456C80.3946 103.278 80.3957 103.1 80.3967 102.917C80.3971 102.719 80.3975 102.521 80.3979 102.324C80.3987 102.116 80.3997 101.908 80.4007 101.7C80.4037 101.017 80.4051 100.334 80.4065 99.6507C80.4071 99.4154 80.4077 99.1801 80.4083 98.9449C80.411 97.8396 80.413 96.7342 80.4142 95.6289C80.4156 94.3535 80.4193 93.0782 80.425 91.8028C80.4293 90.8167 80.4314 89.8306 80.4319 88.8445C80.4322 88.2557 80.4335 87.6669 80.437 87.0781C80.4403 86.5239 80.4409 85.9698 80.4395 85.4156C80.4394 85.2126 80.4403 85.0096 80.4423 84.8066C80.4795 83.3207 80.4795 83.3207 79.8059 82.0572C77.5629 80.9357 74.8024 81.632 72.2946 81.632Z" fill="white"/>
<path d="M32.328 75.6797C34.4793 75.6797 36.6307 75.6797 38.8472 75.6797C38.848 76.2495 38.8489 76.8193 38.8497 77.4064C38.8575 82.6299 38.8674 87.8535 38.8796 93.077C38.8812 93.7614 38.8828 94.4458 38.8844 95.1302C38.8847 95.2664 38.885 95.4027 38.8853 95.543C38.8903 97.7502 38.8939 99.9573 38.8968 102.164C38.8999 104.429 38.9046 106.693 38.9108 108.957C38.9145 110.355 38.917 111.752 38.918 113.149C38.9187 114.107 38.921 115.065 38.9245 116.023C38.9265 116.576 38.9278 117.129 38.9273 117.682C38.9268 118.188 38.9282 118.694 38.9313 119.2C38.9324 119.47 38.9314 119.74 38.9303 120.01C38.9326 121.149 38.9326 121.149 39.4141 122.165C40.5036 123.102 42.0061 122.899 43.3646 122.9C43.5369 122.901 43.7091 122.903 43.8866 122.905C45.6486 122.945 45.6486 122.945 47.2088 122.262C47.668 121.645 47.811 121.14 47.8128 120.375C47.8138 120.215 47.8149 120.055 47.816 119.89C47.8157 119.715 47.8154 119.54 47.8152 119.36C47.816 119.174 47.8168 118.987 47.8176 118.795C47.8199 118.278 47.8204 117.761 47.8206 117.244C47.8211 116.686 47.8232 116.129 47.8252 115.571C47.8283 114.605 47.8305 113.639 47.8319 112.672C47.834 111.276 47.8376 109.879 47.8416 108.482C47.848 106.215 47.8532 103.949 47.8576 101.682C47.8619 99.4807 47.8668 97.2791 47.8724 95.0774C47.8728 94.9417 47.8731 94.806 47.8735 94.6662C47.8752 93.9854 47.877 93.3046 47.8788 92.6239C47.8935 86.9758 47.906 81.3278 47.9174 75.6797C50.0687 75.6797 52.2201 75.6797 54.4366 75.6797C54.4495 81.5835 54.4596 87.4872 54.4656 93.391C54.4663 94.0886 54.467 94.7863 54.4678 95.4839C54.4679 95.6228 54.4681 95.7617 54.4682 95.9048C54.4707 98.151 54.4751 100.397 54.4804 102.643C54.4857 104.95 54.4888 107.256 54.49 109.562C54.4907 110.984 54.4932 112.406 54.4978 113.828C54.5008 114.805 54.5017 115.781 54.501 116.757C54.5006 117.32 54.5011 117.883 54.5042 118.445C54.507 118.962 54.5071 119.478 54.5052 119.995C54.5048 120.267 54.5072 120.539 54.5098 120.812C54.4952 122.973 53.9086 125.042 52.4259 126.673C50.9054 128.065 48.8403 128.831 46.7928 128.851C46.63 128.852 46.4671 128.854 46.2993 128.856C46.1248 128.857 45.9503 128.858 45.7705 128.859C45.5884 128.86 45.4062 128.862 45.2185 128.863C44.8328 128.865 44.4471 128.866 44.0614 128.867C43.6702 128.869 43.2791 128.872 42.888 128.876C39.7701 128.911 36.7996 128.909 34.3387 126.709C32.7105 124.957 32.2832 122.83 32.2939 120.519C32.2938 120.325 32.2935 120.131 32.2931 119.937C32.2925 119.407 32.2936 118.876 32.2951 118.346C32.2963 117.773 32.2959 117.2 32.2957 116.627C32.2955 115.635 32.2964 114.644 32.298 113.652C32.3003 112.218 32.301 110.784 32.3014 109.35C32.302 107.023 32.3039 104.697 32.3066 102.37C32.3092 100.111 32.3112 97.8509 32.3124 95.5912C32.3125 95.4518 32.3125 95.3125 32.3126 95.1689C32.313 94.4697 32.3134 93.7706 32.3137 93.0714C32.3166 87.2742 32.3217 81.4769 32.328 75.6797Z" fill="white"/>
<path d="M32.328 14.8809C34.4793 14.8809 36.6307 14.8809 38.8472 14.8809C38.848 15.4507 38.8489 16.0205 38.8497 16.6076C38.8575 21.8311 38.8674 27.0546 38.8796 32.2781C38.8812 32.9625 38.8828 33.6469 38.8844 34.3313C38.8847 34.4676 38.885 34.6038 38.8853 34.7442C38.8903 36.9514 38.8939 39.1585 38.8968 41.3657C38.8999 43.6298 38.9046 45.894 38.9108 48.1582C38.9145 49.5557 38.917 50.9532 38.918 52.3507C38.9187 53.3085 38.921 54.2664 38.9245 55.2243C38.9265 55.7772 38.9278 56.3301 38.9273 56.883C38.9268 57.3892 38.9282 57.8954 38.9313 58.4016C38.9324 58.6715 38.9314 58.9413 38.9303 59.2112C38.9326 60.3503 38.9326 60.3503 39.4141 61.3657C40.5036 62.3032 42.0061 62.1002 43.3646 62.1009C43.5369 62.1026 43.7091 62.1044 43.8866 62.1062C45.6486 62.1462 45.6486 62.1462 47.2088 61.4632C47.668 60.8461 47.811 60.3408 47.8128 59.576C47.8138 59.4161 47.8149 59.2562 47.816 59.0915C47.8157 58.9166 47.8154 58.7416 47.8152 58.5614C47.816 58.375 47.8168 58.1886 47.8176 57.9966C47.8199 57.4795 47.8204 56.9624 47.8206 56.4453C47.8211 55.8876 47.8232 55.3299 47.8252 54.7722C47.8283 53.806 47.8305 52.8399 47.8319 51.8737C47.834 50.4767 47.8376 49.0798 47.8416 47.6828C47.848 45.4164 47.8532 43.15 47.8576 40.8836C47.8619 38.6819 47.8668 36.4802 47.8724 34.2786C47.8728 34.1429 47.8731 34.0072 47.8735 33.8673C47.8752 33.1866 47.877 32.5058 47.8788 31.825C47.8935 26.177 47.906 20.5289 47.9174 14.8809C50.0687 14.8809 52.2201 14.8809 54.4366 14.8809C54.4495 20.7846 54.4596 26.6884 54.4656 32.5922C54.4663 33.2898 54.467 33.9875 54.4678 34.6851C54.4679 34.824 54.4681 34.9629 54.4682 35.106C54.4707 37.3521 54.4751 39.5983 54.4804 41.8444C54.4857 44.1507 54.4888 46.457 54.49 48.7633C54.4907 50.1854 54.4932 51.6075 54.4978 53.0296C54.5008 54.0059 54.5017 54.9823 54.501 55.9586C54.5006 56.5212 54.5011 57.0837 54.5042 57.6463C54.507 58.1628 54.5071 58.6792 54.5052 59.1957C54.5048 59.468 54.5072 59.7404 54.5098 60.0127C54.4952 62.1739 53.9086 64.2433 52.4259 65.8743C50.9054 67.2658 48.8403 68.0317 46.7928 68.0517C46.63 68.0536 46.4671 68.0554 46.2993 68.0573C46.1248 68.0583 45.9503 68.0594 45.7705 68.0604C45.5884 68.0616 45.4062 68.0627 45.2185 68.0639C44.8328 68.066 44.4471 68.0674 44.0614 68.0685C43.6702 68.0697 43.2791 68.0727 42.888 68.0772C39.7701 68.1125 36.7996 68.1102 34.3387 65.9097C32.7105 64.1584 32.2832 62.0313 32.2939 59.7203C32.2938 59.5263 32.2935 59.3323 32.2931 59.1382C32.2925 58.6079 32.2936 58.0775 32.2951 57.5472C32.2963 56.9742 32.2959 56.4013 32.2957 55.8283C32.2955 54.8365 32.2964 53.8448 32.298 52.853C32.3003 51.4191 32.301 49.9852 32.3014 48.5512C32.302 46.2246 32.3039 43.898 32.3066 41.5714C32.3092 39.3117 32.3112 37.052 32.3124 34.7924C32.3125 34.653 32.3125 34.5136 32.3126 34.3701C32.313 33.6709 32.3134 32.9717 32.3137 32.2726C32.3166 26.4753 32.3217 20.6781 32.328 14.8809Z" fill="white"/>
<path d="M152.786 14.3945C152.985 14.3939 153.183 14.3931 153.382 14.3923C153.796 14.391 154.21 14.3914 154.623 14.3928C155.147 14.3944 155.671 14.3915 156.195 14.3874C156.605 14.3848 157.015 14.3848 157.424 14.3857C157.709 14.3857 157.994 14.3833 158.279 14.3809C160.529 14.3976 162.903 14.9917 164.581 16.5763C166.508 18.7486 166.724 21.1794 166.708 23.9392C166.707 24.1977 166.707 24.4562 166.707 24.7148C166.706 25.3909 166.703 26.067 166.7 26.7431C166.696 27.5567 166.695 28.3702 166.693 29.1838C166.69 30.4158 166.685 31.6478 166.68 32.8799C164.529 32.8799 162.377 32.8799 160.161 32.8799C160.156 32.136 160.15 31.3921 160.145 30.6256C160.141 30.1528 160.136 29.6801 160.131 29.2073C160.124 28.4577 160.116 27.7082 160.112 26.9587C160.108 26.354 160.102 25.7494 160.095 25.1447C160.093 24.9147 160.091 24.6846 160.09 24.4545C160.124 22.5669 160.124 22.5669 159.311 20.9132C158.866 20.566 158.488 20.5314 157.943 20.525C157.809 20.5231 157.676 20.5213 157.538 20.5194C157.394 20.5184 157.251 20.5174 157.102 20.5163C156.88 20.5146 156.88 20.5146 156.653 20.5128C156.338 20.5108 156.024 20.5093 155.71 20.5082C155.231 20.5058 154.751 20.4996 154.271 20.4933C153.966 20.4919 153.661 20.4907 153.355 20.4897C153.212 20.4872 153.069 20.4847 152.922 20.4822C152.104 20.4847 151.573 20.531 150.949 21.1169C150.431 21.8975 150.464 22.6236 150.47 23.5272C150.469 23.6848 150.468 23.8423 150.468 24.0046C150.466 24.5328 150.467 25.0608 150.469 25.5889C150.468 25.9675 150.467 26.346 150.467 26.7245C150.465 27.646 150.465 28.5676 150.466 29.4891C150.467 30.2381 150.467 30.9871 150.467 31.7361C150.467 31.8427 150.467 31.9493 150.467 32.0592C150.467 32.2758 150.466 32.4924 150.466 32.709C150.465 34.7399 150.466 36.7707 150.469 38.8016C150.471 40.5439 150.47 42.2863 150.468 44.0286C150.466 46.0522 150.465 48.0758 150.466 50.0995C150.467 50.3153 150.467 50.5311 150.467 50.7469C150.467 50.8531 150.467 50.9593 150.467 51.0687C150.467 51.8167 150.467 52.5647 150.466 53.3128C150.465 54.2245 150.465 55.1361 150.467 56.0478C150.468 56.5129 150.469 56.978 150.467 57.4431C150.466 57.9473 150.468 58.4515 150.47 58.9557C150.469 59.1027 150.468 59.2496 150.467 59.401C150.473 60.1614 150.512 60.7136 150.949 61.366C152.043 62.3071 153.574 62.1011 154.939 62.1009C155.252 62.1012 155.565 62.1038 155.878 62.1065C157.762 62.1667 157.762 62.1667 159.452 61.4812C160.086 60.5903 160.062 59.6406 160.064 58.5859C160.066 58.4378 160.067 58.2898 160.069 58.1372C160.073 57.6503 160.075 57.1634 160.078 56.6765C160.081 56.3379 160.083 55.9993 160.086 55.6608C160.093 54.7715 160.099 53.8822 160.104 52.9928C160.11 52.0846 160.117 51.1764 160.124 50.2682C160.138 48.4876 160.15 46.7069 160.161 44.9263C162.312 44.9263 164.464 44.9263 166.68 44.9263C166.693 47.0121 166.703 49.0979 166.709 51.1838C166.712 52.1525 166.716 53.1212 166.723 54.09C166.729 55.0263 166.732 55.9627 166.734 56.8991C166.735 57.2548 166.737 57.6105 166.74 57.9662C166.764 60.8807 166.664 63.6656 164.559 65.9233C162.652 67.6509 160.302 68.0719 157.817 68.0746C157.618 68.0755 157.419 68.0764 157.22 68.0774C156.803 68.0791 156.387 68.0797 155.97 68.0795C155.547 68.0795 155.125 68.0814 154.702 68.0853C148.37 68.1425 148.37 68.1425 145.874 65.91C144.324 64.243 143.818 62.1698 143.826 59.958C143.825 59.7914 143.825 59.6249 143.824 59.4533C143.823 58.9941 143.823 58.5349 143.824 58.0757C143.824 57.5792 143.823 57.0827 143.822 56.5862C143.82 55.6147 143.82 54.6433 143.82 53.6718C143.82 52.8817 143.82 52.0917 143.819 51.3016C143.819 51.189 143.819 51.0764 143.819 50.9604C143.819 50.7316 143.819 50.5027 143.819 50.2739C143.817 48.1299 143.817 45.9859 143.818 43.8418C143.819 41.8828 143.817 39.9237 143.815 37.9647C143.812 35.9506 143.811 33.9365 143.811 31.9225C143.812 30.7927 143.811 29.663 143.809 28.5333C143.808 27.5714 143.807 26.6096 143.809 25.6477C143.81 25.1575 143.81 24.6674 143.808 24.1772C143.807 23.6444 143.808 23.1117 143.81 22.579C143.809 22.426 143.808 22.273 143.807 22.1153C143.821 20.0582 144.447 18.1563 145.838 16.6084C146.391 16.0969 146.989 15.7384 147.654 15.3949C147.742 15.3493 147.829 15.3036 147.92 15.2566C149.466 14.5143 151.095 14.3907 152.786 14.3945Z" fill="white"/>
<path d="M0.298828 14.8809C17.3771 14.8809 17.3771 14.8809 19.8299 17.2315C21.6818 19.2751 21.8856 21.9746 21.8773 24.6095C21.8777 24.8086 21.8782 25.0077 21.8788 25.2067C21.8801 25.7411 21.8796 26.2755 21.8787 26.8099C21.8779 27.3735 21.8786 27.937 21.8791 28.5005C21.8796 29.4466 21.8789 30.3927 21.8775 31.3388C21.876 32.4267 21.8765 33.5146 21.8781 34.6025C21.8794 35.5425 21.8795 36.4824 21.8788 37.4224C21.8784 37.9812 21.8783 38.5399 21.8792 39.0987C21.8801 39.6248 21.8795 40.1508 21.8778 40.6769C21.8773 40.9577 21.8781 41.2385 21.879 41.5194C21.8674 44.0401 21.6558 46.5447 19.8565 48.469C19.777 48.556 19.6975 48.6429 19.6157 48.7325C16.4206 51.8652 10.585 51.02 6.81805 51.02C6.81805 56.5387 6.81805 62.0573 6.81805 67.7432C4.6667 67.7432 2.51536 67.7432 0.298828 67.7432C0.298828 50.2986 0.298828 32.8541 0.298828 14.8809ZM6.81805 20.8332C6.81805 28.8306 6.81805 36.828 6.81805 45.0677C10.4125 45.4115 10.4125 45.4115 14.5508 44.4388C15.0612 43.9022 15.056 43.5068 15.0588 42.7936C15.0598 42.6144 15.0608 42.4351 15.0619 42.2505C15.0623 42.0515 15.0626 41.8525 15.063 41.6535C15.0639 41.4442 15.0648 41.2349 15.0658 41.0256C15.0688 40.3379 15.0703 39.6502 15.0717 38.9626C15.0723 38.7257 15.0729 38.4889 15.0735 38.252C15.0762 37.1393 15.0782 36.0266 15.0793 34.9138C15.0807 33.6299 15.0845 32.3459 15.0902 31.062C15.0945 30.0692 15.0966 29.0765 15.097 28.0838C15.0974 27.491 15.0986 26.8983 15.1022 26.3055C15.1055 25.7476 15.1061 25.1898 15.1046 24.6318C15.1046 24.4275 15.1055 24.2231 15.1074 24.0188C15.1414 22.5298 15.1414 22.5298 14.471 21.2584C12.2802 19.9439 9.37298 20.8332 6.81805 20.8332Z" fill="white"/>
<path d="M98.0879 14.8809C100.239 14.8809 102.391 14.8809 104.607 14.8809C104.607 30.3612 104.607 45.8415 104.607 61.7909C108.863 61.7909 113.119 61.7909 117.504 61.7909C117.504 63.7084 117.504 65.6259 117.504 67.6015C111.097 67.6015 104.689 67.6015 98.0879 67.6015C98.0879 50.2037 98.0879 32.8059 98.0879 14.8809Z" fill="white"/>
<path d="M126.291 14.8809C128.442 14.8809 130.594 14.8809 132.81 14.8809C132.81 32.2787 132.81 49.6765 132.81 67.6015C130.659 67.6015 128.508 67.6015 126.291 67.6015C126.291 50.2037 126.291 32.8059 126.291 14.8809Z" fill="white"/>
<path d="M42.249 0C44.1197 0 45.9905 0 47.9179 0C47.8215 0.481997 47.7265 0.888769 47.5677 1.34477C47.5044 1.52743 47.5044 1.52743 47.4398 1.71378C47.3712 1.90953 47.3712 1.90953 47.3012 2.10922C47.2534 2.24654 47.2056 2.38385 47.1564 2.52532C47.0549 2.81678 46.9531 3.10816 46.8512 3.39946C46.6985 3.83559 46.5467 4.27196 46.3949 4.70839C45.9213 6.06777 45.4419 7.42491 44.9472 8.77681C44.9057 8.891 44.8642 9.0052 44.8213 9.12285C44.5335 9.90357 44.5335 9.90357 44.3748 10.0623C43.966 10.0748 43.5607 10.0786 43.1519 10.0761C42.9682 10.0758 42.9682 10.0758 42.7808 10.0755C42.388 10.0747 41.9952 10.0729 41.6024 10.0711C41.3367 10.0704 41.0711 10.0698 40.8055 10.0692C40.1529 10.0676 39.5003 10.0652 38.8477 10.0623C38.9314 9.06877 39.2758 8.17567 39.6083 7.24112C39.67 7.06557 39.7317 6.89002 39.7953 6.70916C39.9255 6.33874 40.0564 5.96854 40.1877 5.59851C40.3552 5.12661 40.5216 4.65434 40.6875 4.18192C40.847 3.72818 41.0071 3.27467 41.1672 2.82116C41.2266 2.65269 41.286 2.48422 41.3471 2.31065C41.4315 2.07297 41.4315 2.07297 41.5176 1.83049C41.5911 1.62302 41.5911 1.62302 41.666 1.41136C41.8453 0.934966 42.0485 0.467848 42.249 0Z" fill="white"/>
</svg>
