<svg width="1148" height="889" viewBox="0 0 1148 889" fill="none" xmlns="http://www.w3.org/2000/svg">
<path d="M0 521.542C117.47 521.542 117.47 521.542 134.563 537.741C147.774 552.09 148.834 571.638 148.698 590.153C148.695 590.807 148.692 591.461 148.689 592.135C148.579 612.544 148.035 631.247 133.743 647.166C129.042 651.708 123.004 654.428 117.201 657.299C118.097 657.843 118.993 658.387 119.917 658.947C132.896 666.951 141.633 675.272 146.348 690.182C148.666 700.631 148.6 711.699 148.596 722.35C148.599 723.508 148.602 724.666 148.606 725.859C148.615 729.647 148.617 733.435 148.618 737.222C148.619 738.54 148.621 739.859 148.623 741.177C148.632 748.078 148.636 754.98 148.635 761.882C148.634 768.268 148.645 774.654 148.66 781.04C148.673 786.564 148.678 792.087 148.678 797.611C148.677 800.892 148.681 804.173 148.69 807.454C148.812 853.617 148.812 853.618 132.766 870.362C102.494 899.391 23.9487 885.84 0 885.84C0 765.622 0 645.403 0 521.542ZM44.9269 562.562C44.9269 587.379 44.9269 612.197 44.9269 637.766C71.2851 639.582 71.2851 639.582 94.7371 629.952C101.139 622.543 102.854 615.32 102.844 605.749C102.851 604.384 102.851 604.384 102.857 602.992C102.863 601.074 102.863 599.157 102.859 597.239C102.856 594.313 102.879 591.389 102.903 588.463C102.906 586.595 102.906 584.727 102.905 582.859C102.914 581.989 102.923 581.119 102.933 580.222C102.887 574.077 101.791 569.956 97.6671 565.187C94.5734 562.577 91.9527 562.441 88.058 562.451C86.6011 562.451 86.6011 562.451 85.1148 562.452C84.0965 562.457 83.0781 562.462 82.0289 562.467C81.0911 562.468 80.1533 562.469 79.187 562.47C75.6821 562.475 72.1771 562.489 68.6722 562.501C56.9183 562.531 56.9183 562.531 44.9269 562.562ZM44.9269 678.786C44.9269 733.577 44.9269 788.369 44.9269 844.82C69.1627 846.877 69.1627 846.877 98.7048 841.097C102.133 837.226 102.795 833.548 102.812 828.476C102.82 827.357 102.828 826.239 102.837 825.086C102.836 823.259 102.836 823.259 102.834 821.395C102.84 820.091 102.847 818.788 102.854 817.485C102.871 813.952 102.876 810.418 102.877 806.884C102.879 804.673 102.883 802.462 102.888 800.251C102.906 792.526 102.914 784.802 102.912 777.078C102.911 769.895 102.932 762.712 102.963 755.53C102.988 749.35 102.999 743.17 102.998 736.991C102.997 733.306 103.002 729.621 103.023 725.936C103.042 722.466 103.042 718.996 103.028 715.525C103.025 713.658 103.041 711.792 103.058 709.925C102.995 701.179 101.34 694.589 96.5073 687.271C81.9777 673.387 65.8403 678.786 44.9269 678.786Z" fill="#201E20"/>
<path d="M451.223 102.552C568.693 102.552 568.693 102.552 585.786 118.751C598.997 133.099 600.056 152.648 599.921 171.163C599.918 171.817 599.915 172.471 599.912 173.145C599.801 193.554 599.257 212.257 584.966 228.176C580.264 232.718 574.227 235.438 568.423 238.309C569.32 238.853 570.216 239.397 571.14 239.957C584.119 247.961 592.855 256.282 597.571 271.192C599.889 281.641 599.823 292.708 599.819 303.36C599.822 304.518 599.825 305.676 599.829 306.869C599.838 310.657 599.84 314.444 599.841 318.232C599.842 319.55 599.844 320.868 599.845 322.187C599.854 329.088 599.858 335.99 599.858 342.891C599.857 349.277 599.867 355.663 599.883 362.05C599.896 367.573 599.901 373.097 599.9 378.621C599.9 381.902 599.904 385.183 599.913 388.464C600.035 434.627 600.035 434.627 583.989 451.372C553.716 480.401 475.171 466.85 451.223 466.85C451.223 346.632 451.223 226.413 451.223 102.552ZM496.15 143.572C496.15 168.389 496.15 193.206 496.15 218.776C522.508 220.592 522.508 220.592 545.96 210.962C552.362 203.553 554.077 196.329 554.067 186.759C554.073 185.394 554.073 185.394 554.08 184.002C554.085 182.084 554.086 180.167 554.081 178.249C554.078 175.323 554.101 172.398 554.126 169.473C554.128 167.605 554.129 165.737 554.128 163.868C554.137 162.998 554.146 162.128 554.155 161.232C554.11 155.087 553.014 150.965 548.89 146.197C545.796 143.586 543.175 143.451 539.281 143.461C537.824 143.461 537.824 143.461 536.337 143.461C535.319 143.466 534.301 143.471 533.252 143.477C532.314 143.478 531.376 143.479 530.41 143.48C526.905 143.485 523.4 143.498 519.895 143.511C508.141 143.541 508.141 143.541 496.15 143.572ZM496.15 259.796C496.15 314.587 496.15 369.378 496.15 425.83C520.385 427.887 520.385 427.887 549.927 422.106C553.356 418.236 554.017 414.558 554.034 409.485C554.043 408.367 554.051 407.248 554.06 406.096C554.058 404.269 554.058 404.269 554.057 402.404C554.063 401.101 554.069 399.798 554.077 398.495C554.094 394.961 554.099 391.428 554.1 387.894C554.101 385.683 554.105 383.472 554.111 381.261C554.129 373.536 554.137 365.812 554.135 358.087C554.134 350.905 554.155 343.722 554.185 336.539C554.211 330.36 554.221 324.18 554.22 318.001C554.22 314.316 554.225 310.631 554.246 306.946C554.265 303.475 554.265 300.005 554.251 296.535C554.248 294.668 554.264 292.802 554.281 290.935C554.218 282.189 552.563 275.599 547.73 268.281C533.2 254.397 517.063 259.796 496.15 259.796Z" fill="#201E20"/>
<path d="M730.478 518.188C731.846 518.184 733.213 518.178 734.581 518.172C737.428 518.164 740.276 518.166 743.123 518.176C746.009 518.185 748.894 518.178 751.779 518.156C795.692 517.819 795.692 517.819 812.53 533.506C825.181 547.223 827.399 564.572 827.371 582.445C827.374 583.521 827.376 584.596 827.378 585.705C827.384 589.287 827.384 592.868 827.383 596.45C827.386 599.028 827.389 601.605 827.393 604.182C827.401 610.444 827.403 616.705 827.404 622.966C827.404 628.06 827.406 633.153 827.41 638.247C827.418 652.712 827.423 667.178 827.422 681.643C827.422 682.422 827.422 683.201 827.422 684.003C827.422 684.782 827.422 685.562 827.422 686.365C827.421 698.993 827.431 711.621 827.444 724.248C827.459 737.239 827.465 750.229 827.464 763.219C827.464 770.503 827.467 777.786 827.477 785.069C827.486 791.271 827.488 797.473 827.482 803.674C827.478 806.833 827.479 809.992 827.487 813.15C827.577 854.187 827.577 854.187 814.544 870.213C814.078 870.824 813.612 871.434 813.133 872.063C809.523 876.25 805.107 878.696 800.26 881.201C799.343 881.683 799.343 881.683 798.406 882.176C787.741 887.388 776.504 888.243 764.806 888.217C763.439 888.221 762.071 888.226 760.703 888.232C757.856 888.241 755.009 888.239 752.161 888.229C749.276 888.22 746.391 888.227 743.505 888.249C700.074 888.582 700.074 888.582 682.877 873.204C672.197 861.716 668.712 847.429 668.766 832.186C668.762 831.038 668.758 829.891 668.754 828.708C668.746 825.543 668.746 822.379 668.75 819.214C668.753 815.793 668.744 812.371 668.737 808.95C668.724 802.255 668.723 795.56 668.725 788.865C668.727 783.42 668.725 777.976 668.721 772.531C668.72 771.755 668.72 770.979 668.719 770.18C668.718 768.603 668.717 767.026 668.715 765.449C668.705 750.674 668.707 735.898 668.713 721.123C668.718 707.622 668.707 694.121 668.688 680.62C668.669 666.741 668.661 652.861 668.665 638.981C668.667 631.195 668.664 623.41 668.651 615.624C668.639 608.996 668.638 602.367 668.649 595.739C668.655 592.361 668.656 588.983 668.645 585.605C668.634 581.933 668.642 578.262 668.655 574.59C668.647 573.536 668.64 572.482 668.633 571.396C668.733 557.219 673.046 544.112 682.632 533.445C686.443 529.92 690.562 527.449 695.146 525.082C695.75 524.767 696.355 524.453 696.977 524.129C707.623 519.019 718.838 518.162 730.478 518.188ZM716.633 565.003C714.276 568.371 713.825 570.862 713.819 574.868C713.815 575.796 713.811 576.723 713.807 577.679C713.808 578.7 713.809 579.721 713.81 580.773C713.807 581.856 713.804 582.94 713.801 584.056C713.793 587.704 713.791 591.352 713.79 595.001C713.785 597.609 713.78 600.217 713.775 602.825C713.762 609.925 713.756 617.024 713.751 624.123C713.749 628.554 713.745 632.986 713.74 637.418C713.728 649.687 713.718 661.955 713.715 674.223C713.715 675.009 713.715 675.794 713.714 676.603C713.714 677.39 713.714 678.177 713.714 678.988C713.713 680.584 713.713 682.179 713.712 683.774C713.712 684.565 713.712 685.357 713.712 686.172C713.708 698.995 713.691 711.818 713.668 724.641C713.645 737.803 713.633 750.965 713.632 764.128C713.631 771.519 713.625 778.91 713.607 786.301C713.592 792.595 713.587 798.889 713.595 805.182C713.599 808.393 713.597 811.604 713.585 814.815C713.572 818.297 713.578 821.778 713.588 825.259C713.576 826.781 713.576 826.781 713.564 828.334C713.608 834.753 714.747 838.694 718.342 844.087C725.73 849.259 736.873 848.055 745.571 848.004C747.703 847.994 749.835 848.004 751.967 848.017C765.143 848.418 765.143 848.418 776.942 843.538C780.473 839.742 781.58 836.434 781.586 831.296C781.594 829.899 781.594 829.899 781.603 828.474C781.599 827.458 781.596 826.443 781.592 825.397C781.596 824.312 781.599 823.227 781.603 822.109C781.613 818.467 781.609 814.824 781.606 811.182C781.61 808.574 781.615 805.965 781.621 803.357C781.633 797.003 781.635 790.649 781.633 784.294C781.631 779.13 781.633 773.966 781.637 768.801C781.637 768.066 781.638 767.331 781.638 766.574C781.64 765.081 781.641 763.588 781.642 762.095C781.653 748.093 781.651 734.091 781.645 720.089C781.64 707.279 781.651 694.468 781.669 681.658C781.688 668.505 781.696 655.351 781.692 642.198C781.691 634.813 781.693 627.428 781.707 620.044C781.718 613.757 781.72 607.471 781.708 601.184C781.702 597.977 781.703 594.77 781.713 591.563C781.723 588.086 781.715 584.609 781.703 581.132C781.714 579.612 781.714 579.612 781.725 578.062C781.685 572.815 781.41 569.022 778.407 564.515C774.535 561.02 772.2 559.516 767.033 559.474C766.091 559.465 765.149 559.456 764.178 559.446C763.157 559.442 762.135 559.438 761.083 559.433C760.035 559.428 758.987 559.422 757.907 559.416C755.687 559.407 753.466 559.401 751.245 559.397C747.849 559.388 744.454 559.357 741.059 559.326C738.903 559.32 736.747 559.315 734.591 559.311C733.067 559.293 733.067 559.293 731.513 559.275C724.883 559.295 721.217 559.91 716.633 565.003Z" fill="#201E20"/>
<path d="M451.223 521.542C567.725 521.542 567.725 521.542 585.027 538.145C596.093 551.074 598.021 565.461 597.992 581.895C597.996 583.445 598.001 584.996 598.007 586.547C598.02 590.738 598.02 594.929 598.018 599.121C598.017 602.63 598.022 606.139 598.026 609.649C598.037 617.934 598.038 626.219 598.032 634.505C598.026 643.028 598.038 651.551 598.059 660.074C598.076 667.413 598.082 674.752 598.078 682.092C598.077 686.466 598.079 690.839 598.093 695.213C598.105 699.33 598.103 703.446 598.09 707.563C598.088 709.065 598.091 710.567 598.099 712.07C598.175 727.19 595.853 741.503 585.252 752.994C579.748 757.977 571.146 765.71 563.54 765.71C573.186 791.512 582.884 817.295 592.657 843.05C593.123 844.28 593.59 845.51 594.057 846.74C595.386 850.244 596.717 853.749 598.048 857.254C598.631 858.791 598.631 858.791 599.227 860.359C599.6 861.343 599.974 862.326 600.359 863.339C600.721 864.297 601.084 865.254 601.457 866.24C602.281 868.388 603.123 870.53 603.976 872.667C604.648 874.361 604.648 874.361 605.333 876.09C605.745 877.115 606.158 878.14 606.582 879.196C607.49 881.934 607.49 881.934 607.49 885.84C591.053 885.84 574.615 885.84 557.68 885.84C553.285 874.854 553.285 874.854 551.738 869.862C551.213 868.178 551.213 868.178 550.677 866.46C550.126 864.675 550.126 864.675 549.565 862.854C549.167 861.575 548.769 860.295 548.37 859.015C547.313 855.616 546.259 852.215 545.207 848.814C543.46 843.175 541.705 837.538 539.952 831.901C539.514 830.492 539.076 829.083 538.638 827.674C535.834 818.653 533.006 809.64 530.131 800.641C529.828 799.693 529.526 798.746 529.214 797.769C527.837 793.46 526.455 789.153 525.066 784.848C524.589 783.356 524.111 781.864 523.634 780.371C523.418 779.709 523.202 779.047 522.98 778.364C522.113 775.643 521.543 773.472 521.543 770.593C513.163 770.593 504.783 770.593 496.15 770.593C496.15 808.625 496.15 846.656 496.15 885.84C481.324 885.84 466.498 885.84 451.223 885.84C451.223 765.622 451.223 645.403 451.223 521.542ZM496.15 562.562C496.15 617.353 496.15 672.145 496.15 728.596C522.727 732.039 522.727 732.039 549.256 723.713C552.047 720.278 551.947 717.229 551.964 712.962C551.971 711.735 551.978 710.508 551.985 709.244C551.987 707.882 551.99 706.519 551.993 705.157C551.999 703.724 552.005 702.292 552.012 700.859C552.033 696.152 552.043 691.444 552.053 686.737C552.056 685.116 552.06 683.494 552.065 681.873C552.083 674.256 552.097 666.638 552.105 659.021C552.115 650.232 552.14 641.443 552.18 632.654C552.209 625.858 552.224 619.062 552.227 612.266C552.229 608.209 552.238 604.151 552.263 600.094C552.285 596.274 552.29 592.456 552.28 588.636C552.279 587.238 552.285 585.839 552.299 584.44C552.555 574.2 552.555 574.2 547.913 565.492C532.455 557.763 513.432 562.562 496.15 562.562Z" fill="#201E20"/>
<path d="M220.728 521.542C235.553 521.542 250.379 521.542 265.654 521.542C265.66 525.469 265.666 529.396 265.672 533.442C265.726 569.439 265.794 605.437 265.878 641.435C265.889 646.151 265.9 650.867 265.911 655.584C265.913 656.523 265.915 657.462 265.917 658.429C265.952 673.64 265.976 688.85 265.997 704.061C266.018 719.664 266.05 735.268 266.093 750.871C266.119 760.502 266.136 770.133 266.142 779.763C266.147 786.365 266.163 792.966 266.187 799.567C266.201 803.377 266.21 807.187 266.206 810.998C266.203 814.486 266.213 817.974 266.234 821.463C266.241 823.323 266.235 825.183 266.227 827.043C266.243 834.893 266.243 834.893 269.561 841.89C277.07 848.351 287.424 846.952 296.786 846.957C297.973 846.969 299.16 846.981 300.383 846.993C312.526 847.269 312.526 847.269 323.278 842.562C326.442 838.31 327.428 834.827 327.44 829.556C327.448 828.455 327.455 827.353 327.462 826.218C327.461 825.012 327.459 823.806 327.457 822.564C327.462 821.28 327.468 819.995 327.474 818.672C327.489 815.108 327.493 811.545 327.494 807.981C327.498 804.138 327.512 800.295 327.526 796.451C327.548 789.793 327.562 783.135 327.572 776.476C327.586 766.849 327.611 757.222 327.639 747.595C327.683 731.976 327.719 716.357 327.749 700.739C327.779 685.566 327.812 670.393 327.851 655.22C327.854 654.285 327.856 653.35 327.859 652.386C327.871 647.695 327.883 643.003 327.895 638.312C327.996 599.389 328.083 560.465 328.161 521.542C342.987 521.542 357.813 521.542 373.088 521.542C373.177 562.227 373.247 602.913 373.288 643.599C373.293 648.406 373.298 653.214 373.303 658.022C373.304 658.979 373.305 659.936 373.306 660.922C373.323 676.402 373.354 691.881 373.39 707.36C373.426 723.254 373.448 739.148 373.456 755.041C373.461 764.842 373.478 774.642 373.51 784.442C373.531 791.171 373.537 797.899 373.532 804.628C373.529 808.504 373.533 812.381 373.554 816.258C373.573 819.817 373.574 823.376 373.561 826.936C373.558 828.812 373.575 830.689 373.593 832.566C373.492 847.459 369.449 861.721 359.232 872.961C348.753 882.55 334.521 887.828 320.411 887.967C319.289 887.979 318.167 887.992 317.01 888.005C315.808 888.012 314.605 888.019 313.366 888.026C312.111 888.034 310.856 888.042 309.562 888.05C306.904 888.065 304.246 888.075 301.588 888.082C298.892 888.091 296.197 888.111 293.501 888.142C272.015 888.385 251.543 888.37 234.584 873.205C223.364 861.136 220.419 846.477 220.493 830.551C220.492 829.214 220.49 827.877 220.488 826.54C220.483 822.885 220.491 819.23 220.501 815.575C220.509 811.626 220.506 807.678 220.505 803.729C220.504 796.895 220.51 790.06 220.521 783.225C220.537 773.343 220.542 763.462 220.544 753.58C220.549 737.546 220.562 721.512 220.58 705.478C220.598 689.906 220.612 674.334 220.62 658.761C220.621 657.801 220.621 656.84 220.622 655.851C220.624 651.033 220.627 646.214 220.629 641.396C220.649 601.445 220.684 561.493 220.728 521.542Z" fill="#201E20"/>
<path d="M220.728 102.552C235.553 102.552 250.379 102.552 265.654 102.552C265.66 106.479 265.666 110.406 265.672 114.452C265.726 150.449 265.794 186.447 265.878 222.444C265.889 227.161 265.9 231.877 265.911 236.594C265.913 237.533 265.915 238.472 265.917 239.439C265.952 254.65 265.976 269.86 265.997 285.071C266.018 300.674 266.05 316.277 266.093 331.881C266.119 341.512 266.136 351.142 266.142 360.773C266.147 367.374 266.163 373.975 266.187 380.577C266.201 384.387 266.21 388.197 266.206 392.008C266.203 395.496 266.213 398.984 266.234 402.473C266.241 404.333 266.235 406.192 266.227 408.052C266.243 415.902 266.243 415.902 269.561 422.9C277.07 429.361 287.424 427.961 296.786 427.966C297.973 427.978 299.16 427.99 300.383 428.003C312.526 428.278 312.526 428.278 323.278 423.571C326.442 419.319 327.428 415.837 327.44 410.566C327.448 409.464 327.455 408.363 327.462 407.227C327.461 406.022 327.459 404.816 327.457 403.574C327.462 402.289 327.468 401.005 327.474 399.682C327.489 396.118 327.493 392.555 327.494 388.991C327.498 385.148 327.512 381.304 327.526 377.461C327.548 370.803 327.562 364.144 327.572 357.486C327.586 347.859 327.611 338.232 327.639 328.605C327.683 312.986 327.719 297.367 327.749 281.748C327.779 266.576 327.812 251.403 327.851 236.23C327.854 235.295 327.856 234.36 327.859 233.396C327.871 228.705 327.883 224.013 327.895 219.322C327.996 180.398 328.083 141.475 328.161 102.552C342.987 102.552 357.813 102.552 373.088 102.552C373.177 143.237 373.247 183.923 373.288 224.608C373.293 229.416 373.298 234.224 373.303 239.032C373.304 239.989 373.305 240.946 373.306 241.932C373.323 257.411 373.354 272.891 373.39 288.37C373.426 304.264 373.448 320.157 373.456 336.051C373.461 345.851 373.478 355.652 373.51 365.452C373.531 372.18 373.537 378.909 373.532 385.637C373.529 389.514 373.533 393.391 373.554 397.268C373.573 400.827 373.574 404.386 373.561 407.945C373.558 409.822 373.575 411.699 373.593 413.575C373.492 428.469 369.449 442.731 359.232 453.97C348.753 463.56 334.521 468.838 320.411 468.976C319.289 468.989 318.167 469.001 317.01 469.014C315.808 469.022 314.605 469.029 313.366 469.036C312.111 469.044 310.856 469.052 309.562 469.06C306.904 469.075 304.246 469.084 301.588 469.092C298.892 469.1 296.197 469.121 293.501 469.152C272.015 469.395 251.543 469.379 234.584 454.214C223.364 442.145 220.419 427.487 220.493 411.56C220.492 410.223 220.49 408.886 220.488 407.549C220.483 403.894 220.491 400.24 220.501 396.585C220.509 392.636 220.506 388.688 220.505 384.739C220.504 377.904 220.51 371.07 220.521 364.235C220.537 354.353 220.542 344.471 220.544 334.59C220.549 318.556 220.562 302.522 220.58 286.488C220.598 270.916 220.612 255.343 220.62 239.771C220.621 238.811 220.621 237.85 220.622 236.861C220.624 232.042 220.627 227.224 220.629 222.406C220.649 182.455 220.684 142.503 220.728 102.552Z" fill="#201E20"/>
<path d="M1050.86 99.1988C1052.23 99.1943 1053.6 99.1891 1054.97 99.1833C1057.82 99.1746 1060.67 99.1768 1063.52 99.1866C1067.13 99.1978 1070.74 99.1781 1074.35 99.1496C1077.18 99.1315 1080 99.132 1082.83 99.1375C1084.79 99.1377 1086.75 99.1214 1088.72 99.1045C1104.22 99.2201 1120.58 103.314 1132.15 114.234C1145.43 129.204 1146.92 145.956 1146.8 164.975C1146.8 166.757 1146.8 168.539 1146.79 170.32C1146.79 174.98 1146.77 179.639 1146.75 184.298C1146.72 189.905 1146.71 195.511 1146.7 201.118C1146.68 209.609 1146.65 218.099 1146.61 226.59C1131.79 226.59 1116.96 226.59 1101.68 226.59C1101.65 221.463 1101.61 216.336 1101.57 211.054C1101.54 207.796 1101.51 204.538 1101.48 201.28C1101.43 196.115 1101.38 190.949 1101.35 185.784C1101.32 181.617 1101.28 177.45 1101.23 173.283C1101.22 171.698 1101.21 170.112 1101.2 168.527C1101.43 155.518 1101.43 155.518 1095.82 144.122C1092.76 141.729 1090.16 141.491 1086.4 141.446C1085.48 141.434 1084.56 141.421 1083.61 141.408C1082.62 141.401 1081.63 141.394 1080.61 141.386C1079.07 141.375 1079.07 141.375 1077.51 141.363C1075.34 141.349 1073.18 141.339 1071.01 141.331C1067.71 141.314 1064.4 141.271 1061.1 141.228C1058.99 141.218 1056.89 141.21 1054.79 141.203C1053.8 141.186 1052.81 141.169 1051.8 141.151C1046.16 141.169 1042.5 141.488 1038.2 145.526C1034.63 150.905 1034.86 155.909 1034.9 162.136C1034.89 163.222 1034.89 164.308 1034.89 165.426C1034.87 169.066 1034.88 172.705 1034.89 176.344C1034.89 178.953 1034.88 181.562 1034.88 184.17C1034.86 190.521 1034.87 196.871 1034.87 203.222C1034.88 208.384 1034.88 213.545 1034.88 218.707C1034.88 219.442 1034.88 220.177 1034.88 220.934C1034.88 222.426 1034.88 223.919 1034.88 225.412C1034.87 239.408 1034.88 253.403 1034.89 267.399C1034.91 279.406 1034.9 291.413 1034.89 303.42C1034.87 317.366 1034.87 331.312 1034.88 345.258C1034.88 346.745 1034.88 348.232 1034.88 349.719C1034.88 350.451 1034.88 351.183 1034.88 351.937C1034.88 357.092 1034.88 362.247 1034.87 367.402C1034.86 373.685 1034.87 379.967 1034.88 386.25C1034.89 389.455 1034.89 392.66 1034.88 395.866C1034.87 399.341 1034.88 402.815 1034.9 406.29C1034.89 407.302 1034.89 408.315 1034.88 409.358C1034.92 414.599 1035.19 418.404 1038.2 422.9C1045.74 429.386 1056.29 427.966 1065.7 427.965C1067.86 427.967 1070.01 427.985 1072.17 428.003C1085.16 428.418 1085.16 428.418 1096.8 423.694C1101.17 417.555 1101 411.01 1101.02 403.741C1101.03 402.721 1101.04 401.701 1101.05 400.649C1101.08 397.294 1101.1 393.938 1101.11 390.583C1101.13 388.249 1101.15 385.916 1101.17 383.583C1101.22 377.454 1101.26 371.326 1101.3 365.197C1101.33 358.938 1101.38 352.679 1101.43 346.421C1101.53 334.149 1101.61 321.878 1101.68 309.607C1116.51 309.607 1131.34 309.607 1146.61 309.607C1146.7 323.981 1146.77 338.355 1146.81 352.73C1146.83 359.406 1146.86 366.082 1146.91 372.758C1146.95 379.211 1146.97 385.664 1146.98 392.117C1146.99 394.568 1147 397.02 1147.02 399.471C1147.19 419.556 1146.5 438.748 1132 454.307C1118.85 466.212 1102.65 469.113 1085.54 469.132C1084.16 469.138 1082.79 469.145 1081.42 469.152C1078.54 469.163 1075.67 469.167 1072.8 469.166C1069.89 469.166 1066.98 469.179 1064.07 469.206C1020.43 469.6 1020.43 469.6 1003.22 454.215C992.544 442.727 989.06 428.44 989.113 413.197C989.109 412.049 989.106 410.901 989.102 409.719C989.094 406.554 989.094 403.39 989.098 400.225C989.101 396.804 989.092 393.382 989.084 389.961C989.072 383.266 989.07 376.571 989.072 369.876C989.074 364.431 989.073 358.987 989.068 353.542C989.068 352.766 989.067 351.99 989.067 351.19C989.065 349.613 989.064 348.037 989.063 346.46C989.052 331.684 989.055 316.909 989.06 302.133C989.066 288.633 989.055 275.132 989.036 261.631C989.017 247.751 989.009 233.872 989.013 219.992C989.015 212.206 989.012 204.421 988.998 196.635C988.987 190.007 988.985 183.378 988.997 176.75C989.003 173.371 989.004 169.994 988.992 166.616C988.982 162.944 988.99 159.273 989.002 155.601C988.995 154.547 988.988 153.493 988.98 152.406C989.08 138.23 993.394 125.123 1002.98 114.455C1006.79 110.93 1010.91 108.46 1015.49 106.093C1016.1 105.778 1016.7 105.464 1017.32 105.14C1027.98 100.024 1039.21 99.1726 1050.86 99.1988Z" fill="#201E20"/>
<path d="M0 102.552C117.694 102.552 117.694 102.552 134.598 118.751C147.36 132.835 148.764 151.438 148.707 169.596C148.709 170.968 148.713 172.34 148.717 173.712C148.726 177.395 148.723 181.078 148.716 184.76C148.711 188.644 148.716 192.528 148.719 196.411C148.723 202.931 148.718 209.451 148.709 215.971C148.698 223.468 148.701 230.965 148.712 238.463C148.721 244.94 148.722 251.418 148.717 257.895C148.714 261.746 148.714 265.597 148.72 269.448C148.726 273.073 148.722 276.698 148.711 280.324C148.707 282.259 148.713 284.194 148.719 286.13C148.639 303.501 147.181 320.761 134.781 334.023C134.233 334.622 133.685 335.221 133.121 335.839C111.102 357.428 70.8865 351.603 44.9269 351.603C44.9269 389.634 44.9269 427.666 44.9269 466.85C30.101 466.85 15.2751 466.85 0 466.85C0 346.632 0 226.413 0 102.552ZM44.9269 143.572C44.9269 198.686 44.9269 253.799 44.9269 310.583C69.6978 312.952 69.6978 312.952 98.2165 306.249C101.734 302.551 101.698 299.826 101.718 294.911C101.725 293.676 101.732 292.441 101.739 291.168C101.741 289.797 101.744 288.425 101.747 287.054C101.753 285.612 101.759 284.169 101.766 282.727C101.787 277.988 101.797 273.249 101.807 268.51C101.81 266.877 101.815 265.245 101.819 263.613C101.837 255.945 101.851 248.276 101.859 240.608C101.869 231.76 101.894 222.911 101.934 214.063C101.963 207.222 101.978 200.38 101.981 193.539C101.983 189.454 101.992 185.369 102.017 181.284C102.039 177.439 102.044 173.595 102.034 169.75C102.033 168.342 102.039 166.934 102.053 165.525C102.287 155.264 102.287 155.264 97.6671 146.502C82.5691 137.443 62.5341 143.572 44.9269 143.572Z" fill="#201E20"/>
<path d="M673.904 102.552C688.73 102.552 703.556 102.552 718.831 102.552C718.831 209.234 718.831 315.915 718.831 425.83C748.161 425.83 777.49 425.83 807.708 425.83C807.708 439.044 807.708 452.259 807.708 465.873C763.553 465.873 719.398 465.873 673.904 465.873C673.904 345.977 673.904 226.081 673.904 102.552Z" fill="#201E20"/>
<path d="M868.266 102.552C883.091 102.552 897.917 102.552 913.193 102.552C913.193 222.448 913.193 342.344 913.193 465.873C898.367 465.873 883.541 465.873 868.266 465.873C868.266 345.977 868.266 226.081 868.266 102.552Z" fill="#201E20"/>
<path d="M289.092 0C301.985 0 314.877 0 328.159 0C327.495 3.32166 326.841 6.12491 325.746 9.26741C325.31 10.5262 325.31 10.5262 324.865 11.8105C324.392 13.1594 324.392 13.1594 323.909 14.5356C323.58 15.4819 323.251 16.4282 322.912 17.4031C322.212 19.4117 321.511 21.4197 320.808 23.4272C319.756 26.4328 318.71 29.44 317.664 32.4476C314.4 41.8157 311.096 51.1684 307.687 60.4849C307.401 61.2719 307.115 62.0589 306.82 62.8697C304.836 68.25 304.836 68.25 303.743 69.3437C300.925 69.4302 298.132 69.4562 295.315 69.439C294.049 69.437 294.049 69.437 292.757 69.4349C290.05 69.4294 287.343 69.4171 284.636 69.4047C282.806 69.3998 280.975 69.3953 279.145 69.3913C274.647 69.3806 270.15 69.3637 265.652 69.3437C266.23 62.4969 268.603 56.3422 270.894 49.9018C271.32 48.692 271.745 47.4823 272.183 46.2358C273.081 43.6831 273.982 41.1319 274.887 38.5819C276.041 35.3298 277.188 32.0752 278.332 28.8195C279.431 25.6926 280.534 22.5672 281.638 19.4419C282.047 18.2809 282.456 17.1199 282.877 15.9237C283.459 14.2858 283.459 14.2858 284.052 12.6147C284.559 11.1849 284.559 11.1849 285.075 9.7263C286.31 6.44327 287.711 3.22415 289.092 0Z" fill="#201E20"/>
</svg>
